<?xml version="1.0" standalone="no"?>
<!DOCTYPE svg PUBLIC "-//W3C//DTD SVG 20010904//EN"
 "http://www.w3.org/TR/2001/REC-SVG-20010904/DTD/svg10.dtd">
<svg version="1.0" xmlns="http://www.w3.org/2000/svg"
 width="378.000000pt" height="378.000000pt" viewBox="0 0 378.000000 378.000000"
 preserveAspectRatio="xMidYMid meet">
<metadata>
Created by potrace 1.14, written by Peter Selinger 2001-2017
</metadata>
<g transform="translate(0.000000,378.000000) scale(0.100000,-0.100000)"
fill="#000000" stroke="none">
<path d="M886 3315 c-32 -19 -60 -35 -61 -35 -1 0 -54 -31 -116 -68 -63 -38
-147 -86 -187 -108 -48 -26 -74 -46 -78 -61 -4 -13 -7 -415 -8 -894 l-2 -871
53 -34 c29 -19 55 -34 57 -34 2 0 43 -23 92 -52 49 -28 109 -62 134 -76 25
-13 50 -27 55 -32 6 -4 30 -19 55 -32 25 -14 101 -58 170 -98 69 -40 145 -84
170 -98 25 -13 52 -31 61 -38 8 -8 20 -14 26 -14 5 0 38 -18 72 -40 34 -22 64
-40 66 -40 2 0 39 -21 82 -46 43 -25 101 -59 128 -74 28 -16 108 -62 179 -104
127 -74 156 -87 156 -66 0 6 8 10 19 10 10 0 24 7 31 15 7 8 17 15 23 15 5 0
38 18 73 40 35 22 66 40 69 40 2 0 34 18 70 40 36 22 69 40 74 40 5 0 11 3 13
8 2 4 15 14 30 22 15 8 74 42 130 75 57 33 115 66 129 75 186 108 261 152 322
188 40 23 80 45 90 48 9 4 17 10 17 15 0 5 5 9 11 9 6 0 70 34 142 77 186 107
229 132 254 145 l22 11 -1 889 c-1 936 0 918 -43 918 -7 0 -20 6 -27 13 -15
13 -44 30 -103 61 -22 12 -42 23 -45 26 -3 3 -16 11 -29 18 -13 8 -39 22 -57
33 -19 10 -49 28 -68 38 -18 11 -44 25 -57 33 -13 7 -26 16 -29 19 -3 3 -15
12 -28 18 -24 13 -38 8 -107 -32 -262 -154 -426 -247 -438 -247 -8 0 -25 8
-38 19 -13 10 -98 61 -189 113 -91 52 -189 109 -218 127 -29 17 -56 31 -59 31
-11 0 -168 -94 -171 -102 -2 -4 -8 -8 -14 -8 -6 0 -44 -20 -85 -45 -40 -25
-76 -45 -79 -45 -4 0 -26 -13 -51 -30 -24 -16 -48 -30 -52 -30 -5 0 -14 -7
-21 -15 -7 -8 -21 -15 -31 -15 -15 0 -253 133 -397 222 -33 21 -120 68 -125
68 -2 0 -29 -16 -61 -35z"/>
</g>
</svg>
