<?xml version="1.0" standalone="no"?>
<!DOCTYPE svg PUBLIC "-//W3C//DTD SVG 20010904//EN"
 "http://www.w3.org/TR/2001/REC-SVG-20010904/DTD/svg10.dtd">
<svg version="1.0" xmlns="http://www.w3.org/2000/svg"
 width="256.000000pt" height="256.000000pt" viewBox="0 0 256.000000 256.000000"
 preserveAspectRatio="xMidYMid meet">
<metadata>
Created by potrace 1.11, written by Peter Selinger 2001-2013
</metadata>
<g transform="translate(0.000000,256.000000) scale(0.100000,-0.100000)"
fill="#000000" stroke="none">
<path d="M239 2356 c-1 -1 -2 -461 -3 -1023 -1 -676 2 -1024 9 -1026 5 -2 57
-3 115 -3 l105 1 1 810 c0 446 -2 841 -6 878 -3 37 -3 70 -1 73 3 3 15 -33 27
-78 14 -53 140 -346 337 -788 173 -388 332 -743 353 -790 21 -47 41 -90 45
-95 6 -9 89 -13 121 -6 3 0 12 18 19 39 7 20 20 53 30 72 9 19 99 220 199 445
100 226 192 434 206 463 13 29 24 54 24 57 0 2 16 39 36 82 108 233 199 447
225 527 24 77 28 83 22 41 -3 -27 -8 -428 -10 -890 l-4 -840 118 0 118 0 3
1026 2 1026 -152 -1 -151 -1 -77 -170 c-43 -93 -137 -303 -210 -465 -73 -162
-177 -392 -230 -510 -105 -230 -190 -432 -210 -493 -10 -33 -30 -43 -30 -15 0
13 -61 168 -102 258 -16 36 -160 364 -321 730 l-293 665 -157 1 c-86 0 -158 0
-158 0z"/>
</g>
</svg>
